HIERARCHY
ROOT hip
{
  OFFSET 0 0 0
  CHANNELS 6 Xposition Yposition Zposition Zrotation Yrotation Xrotation
  JOINT abdomen
  {
    OFFSET 0 20.6881 -0.73152
    CHANNELS 3 Zrotation Xrotation Yrotation
    JOINT chest
    {
      OFFSET 0 11.7043 -0.48768
      CHANNELS 3 Zrotation Xrotation Yrotation
      JOINT neck
      {
        OFFSET 0 22.1894 -2.19456
        CHANNELS 3 Zrotation Xrotation Yrotation
        JOINT head
        {
          OFFSET -0.24384 7.07133 1.2192
          CHANNELS 3 Zrotation Xrotation Yrotation
          JOINT leftEye
          {
            OFFSET 4.14528 8.04674 8.04672
            CHANNELS 3 Zrotation Xrotation Yrotation
            End Site
            {
              OFFSET 1 0 0
            }
          }
          JOINT rightEye
          {
            OFFSET -3.6576 8.04674 8.04672
            CHANNELS 3 Zrotation Xrotation Yrotation
            End Site
            {
              OFFSET 1 0 0
            }
          }
        }
      }
      JOINT rCollar
      {
        OFFSET -2.68224 19.2634 -4.8768
        CHANNELS 3 Zrotation Xrotation Yrotation
        JOINT rShldr
        {
          OFFSET -8.77824 -1.95073 1.46304
          CHANNELS 3 Zrotation Xrotation Yrotation
          JOINT rForeArm
          {
            OFFSET -28.1742 -1.7115 0.48768
            CHANNELS 3 Zrotation Xrotation Yrotation
            JOINT rHand
            {
              OFFSET -22.5879 0.773209 7.07136
              CHANNELS 3 Zrotation Xrotation Yrotation
              JOINT rThumb1
              {
                OFFSET -1.2192 -0.487915 3.41376
                CHANNELS 3 Zrotation Xrotation Yrotation
                JOINT rThumb2
                {
                  OFFSET -3.37035 -0.52449 3.41376
                  CHANNELS 3 Zrotation Xrotation Yrotation
                  End Site
                  {
                    OFFSET -1.78271 -1.18214 1.43049
                  }
                }
              }
              JOINT rIndex1
              {
                OFFSET -7.75947 0.938293 5.60832
                CHANNELS 3 Zrotation Xrotation Yrotation
                JOINT rIndex2
                {
                  OFFSET -2.54057 -0.884171 1.56538
                  CHANNELS 3 Zrotation Xrotation Yrotation
                  End Site
                  {
                    OFFSET -1.62519 -0.234802 1.16502
                  }
                }
              }
              JOINT rMid1
              {
                OFFSET -8.24714 1.18213 3.41376
                CHANNELS 3 Zrotation Xrotation Yrotation
                JOINT rMid2
                {
                  OFFSET -3.10165 -0.590103 1.0647
                  CHANNELS 3 Zrotation Xrotation Yrotation
                  End Site
                  {
                    OFFSET -2.48547 -0.328903 0.83742
                  }
                }
              }
              JOINT rRing1
              {
                OFFSET -8.82822 0.546677 1.51678
                CHANNELS 3 Zrotation Xrotation Yrotation
                JOINT rRing2
                {
                  OFFSET -2.60934 -0.819778 -0.0198488
                  CHANNELS 3 Zrotation Xrotation Yrotation
                  End Site
                  {
                    OFFSET -2.33842 -0.294052 0.168128
                  }
                }
              }
              JOINT rPinky1
              {
                OFFSET -8.27202 -0.0477905 -0.4584
                CHANNELS 3 Zrotation Xrotation Yrotation
                JOINT rPinky2
                {
                  OFFSET -1.82734 -0.647385 -0.700984
                  CHANNELS 3 Zrotation Xrotation Yrotation
                  End Site
                  {
                    OFFSET -1.69225 -0.51767 -0.607171
                  }
                }
              }
            }
          }
        }
      }
      JOINT lCollar
      {
        OFFSET 2.68224 19.2634 -4.8768
        CHANNELS 3 Zrotation Xrotation Yrotation
        JOINT lShldr
        {
          OFFSET 8.77824 -1.95073 1.46304
          CHANNELS 3 Zrotation Xrotation Yrotation
          JOINT lForeArm
          {
            OFFSET 28.1742 -1.7115 0.48768
            CHANNELS 3 Zrotation Xrotation Yrotation
            JOINT lHand
            {
              OFFSET 22.5879 0.773209 7.07136
              CHANNELS 3 Zrotation Xrotation Yrotation
              JOINT lThumb1
              {
                OFFSET 1.2192 -0.487915 3.41376
                CHANNELS 3 Zrotation Xrotation Yrotation
                JOINT lThumb2
                {
                  OFFSET 3.37035 -0.52449 3.41376
                  CHANNELS 3 Zrotation Xrotation Yrotation
                  End Site
                  {
                    OFFSET 1.78271 -1.18214 1.43049
                  }
                }
              }
              JOINT lIndex1
              {
                OFFSET 7.75947 0.938293 5.60832
                CHANNELS 3 Zrotation Xrotation Yrotation
                JOINT lIndex2
                {
                  OFFSET 2.54057 -0.884171 1.56538
                  CHANNELS 3 Zrotation Xrotation Yrotation
                  End Site
                  {
                    OFFSET 1.62519 -0.234802 1.16502
                  }
                }
              }
              JOINT lMid1
              {
                OFFSET 8.24714 1.18213 3.41376
                CHANNELS 3 Zrotation Xrotation Yrotation
                JOINT lMid2
                {
                  OFFSET 3.10165 -0.590103 1.0647
                  CHANNELS 3 Zrotation Xrotation Yrotation
                  End Site
                  {
                    OFFSET 2.48547 -0.328903 0.83742
                  }
                }
              }
              JOINT lRing1
              {
                OFFSET 8.82822 0.546677 1.51678
                CHANNELS 3 Zrotation Xrotation Yrotation
                JOINT lRing2
                {
                  OFFSET 2.60934 -0.819778 -0.0198488
                  CHANNELS 3 Zrotation Xrotation Yrotation
                  End Site
                  {
                    OFFSET 2.33842 -0.294052 0.168128
                  }
                }
              }
              JOINT lPinky1
              {
                OFFSET 8.27202 -0.0477905 -0.4584
                CHANNELS 3 Zrotation Xrotation Yrotation
                JOINT lPinky2
                {
                  OFFSET 1.82734 -0.647385 -0.700984
                  CHANNELS 3 Zrotation Xrotation Yrotation
                  End Site
                  {
                    OFFSET 1.69225 -0.51767 -0.607171
                  }
                }
              }
            }
          }
        }
      }
    }
  }
  JOINT rButtock
  {
    OFFSET -8.77824 4.35084 1.2192
    CHANNELS 3 Zrotation Xrotation Yrotation
    JOINT rThigh
    {
      OFFSET 0 -1.70687 -2.19456
      CHANNELS 3 Zrotation Xrotation Yrotation
      JOINT rShin
      {
        OFFSET 0 -36.8199 0.73152
        CHANNELS 3 Zrotation Xrotation Yrotation
        JOINT rFoot
        {
          OFFSET 0.73152 -45.1104 -5.12064
          CHANNELS 3 Zrotation Xrotation Yrotation
          End Site
          {
            OFFSET -1.1221 -3.69964 12.103
          }
        }
      }
    }
  }
  JOINT lButtock
  {
    OFFSET 8.77824 4.35084 1.2192
    CHANNELS 3 Zrotation Xrotation Yrotation
    JOINT lThigh
    {
      OFFSET 0 -1.70687 -2.19456
      CHANNELS 3 Zrotation Xrotation Yrotation
      JOINT lShin
      {
        OFFSET 0 -36.8199 0.73152
        CHANNELS 3 Zrotation Xrotation Yrotation
        JOINT lFoot
        {
          OFFSET -0.73152 -45.1104 -5.12064
          CHANNELS 3 Zrotation Xrotation Yrotation
          End Site
          {
            OFFSET 1.1221 -3.69964 12.103
          }
        }
      }
    }
  }
}
MOTION
Frames:	6
Frame Time:	0.00833333
29.4209 85.1731 5.29461 0.0 0.0 0.0 0.512926 -0.00341805 0.014693 0.141685 -0.00540184 0.0245501 -8.30891e-15 -2.38542e-15 1.8636e-17 -2.48108e-14 -6.36111e-15 1.2424e-17 -0.0 0.0 0.0 -0.0 0.0 0.0 -4.17585e-15 1.59183e-17 1.98785e-16 -8.43447e-14 3.47873e-16 5.96354e-16 -1.49392e-12 4.57602e-13 0.0 -1.7109e-11 -3.94712e-13 -3.18055e-14 -4.0357e-11 1.32435e-13 -3.49861e-14 -6.96931e-11 2.25819e-13 -6.2816e-14 -4.03517e-11 1.34776e-13 -4.45278e-14 7.73091 5.47488 0.417314 -4.03551e-11 1.33583e-13 -3.18055e-14 2.90554 0.965183 0.102902 -4.03492e-11 1.32589e-13 -3.10104e-14 10.2786 0.731801 0.0259123 -4.03618e-11 1.31993e-13 -1.90833e-14 2.22167 -0.733487 -0.20892 -4.17338e-15 1.63066e-17 -1.98785e-16 -8.98479e-14 3.72721e-17 -1.19271e-15 -1.4961e-12 -4.41103e-13 2.8625e-14 -1.71096e-11 4.83469e-13 -3.81667e-14 -4.03606e-11 9.45744e-14 -2.22639e-14 -6.97062e-11 1.62208e-13 -3.4191e-14 -4.03692e-11 9.81996e-14 -9.54166e-15 -7.73091 5.47488 -0.417314 -4.0362e-11 9.51185e-14 -2.22639e-14 -2.90554 0.965183 -0.102902 -4.0377e-11 9.50191e-14 -2.46493e-14 -10.2786 0.731801 -0.0259123 -4.03561e-11 9.34288e-14 -3.49861e-14 -2.22167 -0.733487 0.20892 -2.03217e-16 0.0 -3.88251e-19 0.860115 -4.41145 -0.0729744 -0.002132 2.43939 -0.0112601 -0.474554 1.9726 0.0938525 2.03217e-16 0.0 3.88251e-19 -0.0775848 -2.42096 0.0232521 0.00766703 -1.16602 0.0659928 0.465669 3.58744 -0.1252
21.596 84.5235 -2.06074 -160.145 -83.6326 157.93 0.0232989 2.61143 1.37667 0.115051 0.740178 0.392967 2.53773 3.96185 0.398341 -1.71903 -7.38291 0.314536 -0.0 0.0 0.0 -0.0 0.0 0.0 2.95617e-14 7.12425e-13 2.33929e-14 22.0005 9.32468 1.16319 -5.10718 -2.52967 7.73684 0.042731 -4.58831 -0.6374 -1.95687e-10 1.60918e-10 4.05202e-10 -3.4067e-10 2.78777e-10 6.98435e-10 -1.95681e-10 1.60918e-10 4.05197e-10 7.73091 5.47488 0.417314 -1.95684e-10 1.60917e-10 4.05205e-10 2.90554 0.965183 0.102902 -1.95681e-10 1.60916e-10 4.05206e-10 10.2786 0.731801 0.0259123 -1.95693e-10 1.60916e-10 4.05218e-10 2.22167 -0.733487 -0.20892 2.95383e-14 7.12425e-13 2.30555e-14 -19.7046 0.164143 -2.42847 4.00293 -1.77761 -6.29636 -0.00235453 1.07642 -0.151185 -3.54287e-10 -1.7007e-10 -7.06804e-10 -6.14979e-10 -2.9188e-10 -1.22037e-09 -3.54296e-10 -1.70068e-10 -7.06794e-10 -7.73091 5.47488 -0.417314 -3.54288e-10 -1.7007e-10 -7.06804e-10 -2.90554 0.965183 -0.102902 -3.543e-10 -1.7007e-10 -7.06805e-10 -10.2786 0.731801 -0.0259123 -3.54282e-10 -1.70071e-10 -7.06815e-10 -2.22167 -0.733487 0.20892 -2.03217e-16 0.0 -3.88251e-19 2.37648 -4.60894 4.52957 0.0270661 7.05623 0.113015 -1.33766 -3.54896 -7.56607 2.03217e-16 0.0 3.88251e-19 -0.0705238 -3.25287 -4.68932 -0.0330612 5.41795 -0.124871 1.40418 -2.66677 7.35826
21.5817 84.5239 -2.03203 -160.422 -83.5813 158.13 -0.637009 5.37515 2.82687 0.0805674 1.53291 0.782464 5.15973 8.14763 0.825117 -3.44465 -15.1888 0.663301 -0.0 0.0 0.0 -0.0 0.0 0.0 6.69303e-14 1.46355e-12 4.77953e-14 44.8231 19.178 2.50059 -9.77358 -5.05269 15.9685 -0.0245112 -9.44245 -1.32573 -3.60992e-10 3.49009e-10 8.46848e-10 -6.29034e-10 6.04645e-10 1.4597e-09 -3.60983e-10 3.49006e-10 8.46847e-10 7.73091 5.47488 0.417314 -3.60988e-10 3.49006e-10 8.46851e-10 2.90554 0.965183 0.102902 -3.60987e-10 3.49005e-10 8.46852e-10 10.2786 0.731801 0.0259123 -3.60997e-10 3.49006e-10 8.46862e-10 2.22167 -0.733487 -0.20892 6.68811e-14 1.46355e-12 4.75251e-14 -40.5112 0.315626 -4.99726 7.80355 -3.57894 -12.9579 0.00133603 2.21304 -0.311006 -6.92119e-10 -3.79089e-10 -1.49486e-09 -1.20188e-09 -6.50968e-10 -2.58112e-09 -6.92129e-10 -3.79089e-10 -1.49486e-09 -7.73091 5.47488 -0.417314 -6.9212e-10 -3.79089e-10 -1.49486e-09 -2.90554 0.965183 -0.102902 -6.9213e-10 -3.79089e-10 -1.49486e-09 -10.2786 0.731801 -0.0259123 -6.92115e-10 -3.79089e-10 -1.49487e-09 -2.22167 -0.733487 0.20892 -2.03217e-16 0.0 -3.88251e-19 4.01012 -4.78655 9.39957 0.035736 11.9387 0.248162 -3.8551 -9.10303 -15.8405 2.03217e-16 0.0 3.88251e-19 -0.214359 -4.09804 -9.68132 -0.0274853 12.3754 -0.33308 4.16823 -8.98974 15.4451
21.5643 84.4622 -1.96636 -160.719 -83.6269 158.344 -1.33153 7.82323 4.13488 0.0330017 2.23096 1.13056 7.44486 11.8832 1.21828 -4.89744 -22.146 1.01033 -0.0 0.0 0.0 -0.0 0.0 0.0 9.70368e-14 2.13724e-12 6.97812e-14 64.7393 27.9247 3.8979 -13.3214 -7.0367 23.3742 -0.185706 -13.758 -1.9624 -5.06348e-10 4.82489e-10 1.21568e-09 -8.82625e-10 8.35879e-10 2.09543e-09 -5.06338e-10 4.82484e-10 1.21568e-09 7.73091 5.47488 0.417314 -5.06343e-10 4.82484e-10 1.21568e-09 2.90554 0.965183 0.102902 -5.06345e-10 4.82483e-10 1.21568e-09 10.2786 0.731801 0.0259123 -5.06354e-10 4.82485e-10 1.21569e-09 2.22167 -0.733487 -0.20892 9.69617e-14 2.13724e-12 6.95642e-14 -59.0722 0.488892 -7.28565 10.8565 -5.07573 -18.9571 0.0100012 3.22918 -0.454196 -9.82139e-10 -5.104e-10 -2.12037e-09 -1.70552e-09 -8.75965e-10 -3.66105e-09 -9.82149e-10 -5.10401e-10 -2.12036e-09 -7.73091 5.47488 -0.417314 -9.82139e-10 -5.104e-10 -2.12037e-09 -2.90554 0.965183 -0.102902 -9.82147e-10 -5.104e-10 -2.12037e-09 -10.2786 0.731801 -0.0259123 -9.82135e-10 -5.10399e-10 -2.12038e-09 -2.22167 -0.733487 0.20892 -2.03217e-16 0.0 -3.88251e-19 5.50122 -4.90331 13.7415 0.0231672 16.2896 0.373989 -7.46605 -13.5109 -23.5307 2.03217e-16 0.0 3.88251e-19 -0.462282 -4.80011 -14.1423 0.0225731 18.5852 -0.532676 8.16722 -14.077 23.0301
21.552 84.4665 -1.87745 -161.539 -83.7292 159.107 -1.84414 9.49935 5.05448 -0.0266856 2.69265 1.37441 9.0071 14.4956 1.50543 -5.85479 -26.984 1.29061 -0.0 0.0 0.0 -0.0 0.0 0.0 1.08988e-13 2.61737e-12 8.57259e-14 78.3234 33.9514 5.05894 -15.4683 -8.20242 28.558 -0.35623 -16.7337 -2.42172 -6.01834e-10 4.7944e-10 1.40247e-09 -1.04928e-09 8.30526e-10 2.4173e-09 -6.01824e-10 4.79434e-10 1.40247e-09 7.73091 5.47488 0.417314 -6.01829e-10 4.79434e-10 1.40247e-09 2.90554 0.965183 0.102902 -6.01831e-10 4.79434e-10 1.40247e-09 10.2786 0.731801 0.0259123 -6.0184e-10 4.79436e-10 1.40248e-09 2.22167 -0.733487 -0.20892 1.08887e-13 2.61737e-12 8.55271e-14 -72.0396 0.71896 -8.87297 12.8343 -6.05125 -23.2367 0.0191174 3.94418 -0.555204 -1.15263e-09 -4.4744e-10 -2.33948e-09 -2.00104e-09 -7.65734e-10 -4.03895e-09 -1.15264e-09 -4.47442e-10 -2.33948e-09 -7.73091 5.47488 -0.417314 -1.15263e-09 -4.47441e-10 -2.33948e-09 -2.90554 0.965183 -0.102902 -1.15263e-09 -4.4744e-10 -2.33948e-09 -10.2786 0.731801 -0.0259123 -1.15262e-09 -4.47438e-10 -2.33949e-09 -2.22167 -0.733487 0.20892 -2.03217e-16 0.0 -3.88251e-19 6.57063 -4.94366 16.7584 0.00240322 19.3121 0.465202 -10.697 -16.1165 -29.0988 2.03217e-16 0.0 3.88251e-19 -0.68509 -5.24389 -17.2536 0.0854865 22.9265 -0.684878 11.8057 -17.1659 28.6073
21.5483 84.4944 -1.84675 -160.795 -83.6644 158.334 -1.97734 10.1058 5.41465 -0.0980219 2.81364 1.47429 9.6129 15.5454 1.62646 -6.20203 -28.8586 1.42862 -0.0 0.0 0.0 -0.0 0.0 0.0 9.14637e-14 2.74159e-12 9.00599e-14 83.59 36.1933 5.55489 -16.2164 -8.57912 30.5347 -0.433112 -17.8281 -2.59615 -6.03419e-10 2.46259e-10 1.31636e-09 -1.05269e-09 4.26154e-10 2.26899e-09 -6.03409e-10 2.46254e-10 1.31637e-09 7.73091 5.47488 0.417314 -6.03414e-10 2.46254e-10 1.31637e-09 2.90554 0.965183 0.102902 -6.03415e-10 2.46253e-10 1.31637e-09 10.2786 0.731801 0.0259123 -6.03424e-10 2.46256e-10 1.31637e-09 2.22167 -0.733487 -0.20892 9.13279e-14 2.74159e-12 8.982e-14 -77.1852 0.97624 -9.48843 13.6332 -6.45608 -25.0547 0.0233626 4.22117 -0.594406 -1.12208e-09 -7.95595e-11 -1.92342e-09 -1.94672e-09 -1.29397e-10 -3.3197e-09 -1.12209e-09 -7.9561e-11 -1.92342e-09 -7.73091 5.47488 -0.417314 -1.12208e-09 -7.95597e-11 -1.92342e-09 -2.90554 0.965183 -0.102902 -1.12208e-09 -7.95594e-11 -1.92342e-09 -10.2786 0.731801 -0.0259123 -1.12208e-09 -7.95573e-11 -1.92343e-09 -2.22167 -0.733487 0.20892 -2.03217e-16 0.0 -3.88251e-19 7.03407 -4.91106 17.9093 -0.00844304 20.4757 0.499813 -12.059 -16.9504 -31.2911 2.03217e-16 0.0 3.88251e-19 -0.742527 -5.38589 -18.4626 0.117275 24.6548 -0.749995 13.441 -18.2679 30.8878
